# xmcd CD database file
#
# Track frame offsets:
#	150
#	30425
#	65035
#	90295
#	120220
#	144885
#	168612
#	196865
#	225632
#	256230
#
# Disc length: 3763 seconds
#
# Revision: 0
# Processed by: cddbd v1.5PL3 Copyright (c) Steve Scherf et al.
# Submitted via: CDex 1.51
#
DISCID=740eb10a
DTITLE=Masahiko Osaka and Tomonao Hara Quintet - Favorites
DYEAR=1900
DGENRE=Jazz
TTITLE0=a night in tunisia
TTITLE1=love dance
TTITLE2=take the coltrane
TTITLE3=autumn leaves
TTITLE4=getting out of the city
TTITLE5=I won't grow up
TTITLE6=a nightingale sang in berkeley square
TTITLE7=if I were a bell
TTITLE8=chal's tap
TTITLE9=catch you later
EXTD=
EXTT0=
EXTT1=
EXTT2=
EXTT3=
EXTT4=
EXTT5=
EXTT6=
EXTT7=
EXTT8=
EXTT9=
PLAYORDER=
